<?xml version="1.0" encoding="utf-8"?>
<!-- Generator: Adobe Illustrator 23.0.3, SVG Export Plug-In . SVG Version: 6.00 Build 0)  -->
<svg version="1.1" id="Camada_1" xmlns="http://www.w3.org/2000/svg" xmlns:xlink="http://www.w3.org/1999/xlink" x="0px" y="0px"
	 viewBox="0 0 1024 512" style="enable-background:new 0 0 1024 512;" xml:space="preserve">
<style type="text/css">
	.st0{fill:#CCCCCC;}
	.st1{fill:none;}
	.st2{font-family:'Cinzel-Regular';}
	.st3{font-size:100px;}
</style>
<g>
	<g>
		<path class="st0" d="M255.8,336.8V190.3c0-2.7-2.2-4.9-4.9-4.9s-4.9,2.2-4.9,4.9v146.5c0,2.7,2.2,4.9,4.9,4.9
			S255.8,339.5,255.8,336.8z"/>
		<path class="st0" d="M398,153.5c-10.4,0-23.3-4.5-37-9.2c-17.3-6-37-12.8-57.3-12.8c-23.6,0-37.9,10.3-45.9,19
			c-3,3.2-5.3,6.5-7,9.4c-1.7-2.9-4-6.1-7-9.4c-7.9-8.7-22.3-19-45.9-19c-20.4,0-40,6.8-57.3,12.8c-13.7,4.7-26.6,9.2-37,9.2
			c-2.7,0-4.9,2.2-4.9,4.9V356c0,2.7,2.2,4.9,4.9,4.9c12,0,25.7-4.7,40.2-9.8c16.6-5.7,35.4-12.3,54.1-12.3c16.1,0,29,5.3,38.6,15.8
			c1.8,2,4.9,2.1,6.9,0.3c2-1.8,2.1-4.9,0.3-6.9c-7.9-8.7-22.3-19-45.9-19c-20.4,0-40,6.8-57.3,12.8c-11.6,4-22.7,7.8-32.1,8.9
			V163.1c10.8-1,22.7-5.2,35.3-9.5c16.6-5.7,35.4-12.3,54.1-12.3c37.9,0,47.8,30.1,48.2,31.3c0.6,2.1,2.5,3.5,4.7,3.5
			s4.1-1.4,4.7-3.5c0.1-0.3,10.1-31.3,48.2-31.3c18.7,0,37.5,6.5,54.1,12.3c12.5,4.3,24.5,8.5,35.3,9.5v187.7
			c-9.4-1.1-20.5-4.9-32.1-8.9c-17.3-6-37-12.8-57.3-12.8c-23.6,0-37.9,10.3-45.9,19c-1.8,2-1.7,5.1,0.3,6.9s5.1,1.7,6.9-0.3
			c9.6-10.5,22.6-15.8,38.6-15.8c18.7,0,37.5,6.5,54.1,12.3c14.5,5,28.2,9.8,40.2,9.8c2.7,0,4.9-2.2,4.9-4.9V158.4
			C403,155.7,400.8,153.5,398,153.5z"/>
		<path class="st0" d="M398,370.7c-10.4,0-23.3-4.5-37-9.2c-17.3-6-37-12.8-57.3-12.8c-22.1,0-36.2,9.1-44.3,17.4h-17
			c-8.2-8.3-22.2-17.4-44.3-17.4c-20.4,0-40,6.8-57.3,12.8c-13.7,4.7-26.6,9.2-37,9.2c-2.7,0-4.9,2.2-4.9,4.9c0,2.7,2.2,4.9,4.9,4.9
			c12,0,25.7-4.7,40.2-9.8c16.6-5.7,35.4-12.3,54.1-12.3c16.1,0,29,5.3,38.6,15.8c0.9,1,2.2,1.6,3.6,1.6h21.2c1.4,0,2.7-0.6,3.6-1.6
			c9.6-10.5,22.6-15.8,38.6-15.8c18.7,0,37.5,6.5,54.1,12.3c14.5,5,28.2,9.8,40.2,9.8c2.7,0,4.9-2.2,4.9-4.9
			C403,372.9,400.8,370.7,398,370.7z"/>
	</g>
	<rect x="430.3" y="161.5" class="st1" width="495" height="189"/>
	<text transform="matrix(1 0 0 1 490.7943 221.499)" class="st0 st2 st3">Atenas</text>
	<text transform="matrix(1 0 0 1 453.8943 341.499)" class="st0 st2 st3">Livraria</text>
</g>
</svg>
